#!OML:ASF F:\VICON\USERDATA\INSTALL\Justin_Nancy\Justin_Nancy.ASF
:FULLY-SPECIFIED
:DEGREES
192
root 2.3104 16.8836 5.98395 50.1433 81.8983 44.9468
lowerback 10.2854 1.36112 -6.47185
upperback 0.600346 1.08083 -0.160735
thorax -5.26585 0.697699 3.31727
lowerneck -17.6356 -4.23956 -7.55511
upperneck 19.613 -4.77748 4.81394
head 9.40267 -2.2226 2.28156
rclavicle -1.46107e-014 -1.03368e-014
rhumerus -34.023 -14.2626 -79.4
rradius 31.5316
rwrist 5.72127
rhand -18.3484 11.3925
rfingers 7.12502
rthumb 7.93406 -18.4386
lclavicle -1.46107e-014 -1.03368e-014
lhumerus -35.3515 18.848 80.7291
lradius 20.4511
lwrist -11.148
lhand -16.3249 25.9266
lfingers 7.12502
lthumb 9.8867 55.6744
rfemur -39.52 -1.21742 4.40229
rtibia 45.6034
rfoot -12.6421 -4.90757
rtoes -1.95632
lfemur -6.5696 -3.3991 -38.5338
ltibia 27.7175
lfoot -20.3225 1.68528
ltoes 13.6069
193
root 2.51638 16.8426 6.05793 57.5518 81.1223 52.2436
lowerback 10.0802 1.3261 -7.55528
upperback 0.50198 0.901635 -0.675871
thorax -5.24573 0.633841 3.41168
lowerneck -17.7533 -4.18456 -7.83137
upperneck 19.8977 -4.71899 5.24158
head 9.53797 -2.16556 2.486
rclavicle -3.27995e-015 1.15295e-014
rhumerus -34.3065 -14.2374 -79.4976
rradius 31.7456
rwrist 5.91177
rhand -18.1018 11.3418
rfingers 7.12502
rthumb 8.17205 -18.4802
lclavicle -3.27995e-015 1.15295e-014
lhumerus -34.9874 16.5723 81.8304
lradius 21.0583
lwrist -10.4455
lhand -16.2402 26.1039
lfingers 7.12502
lthumb 9.96839 55.8479
rfemur -40.02 -1.99671 3.08489
rtibia 42.2168
rfoot -11.0368 -5.17608
rtoes -7.46377
lfemur -5.51961 -3.08543 -39.8474
ltibia 26.9244
lfoot -20.4054 1.63978
ltoes 13.5728
194
root 2.737 16.8427 6.15792 55.3507 81.4527 50.4171
lowerback 10.135 1.32396 -7.55798
upperback 0.629546 0.909279 -0.489571
thorax -5.14529 0.63305 3.60931
lowerneck -17.8505 -4.09538 -7.9699
upperneck 20.0974 -4.57647 5.34667
head 9.62181 -2.09626 2.5669
rclavicle -8.34896e-015 1.70955e-014
rhumerus -34.4129 -13.4193 -79.6753
rradius 32.0127
rwrist 5.58548
rhand -17.9453 11.2217
rfingers 7.12502
rthumb 8.32314 -18.5943
lclavicle -8.34896e-015 1.70955e-014
lhumerus -34.704 15.0337 82.7776
lradius 21.6184
lwrist -10.157
lhand -16.6799 26.3781
lfingers 7.12502
lthumb 9.54423 56.1419
rfemur -39.5536 -1.36672 3.66149
rtibia 38.7477
rfoot -10.4427 -5.8937
rtoes -5.3209
lfemur -3.76646 -2.04724 -39.1466
ltibia 26.1208
lfoot -20.806 1.67513
ltoes 12.8543
195
root 2.94696 16.8324 6.22367 58.6711 82.1328 53.5636
lowerback 9.79325 1.06624 -7.00313
upperback 0.623772 0.655685 -0.52507
thorax -4.92159 0.487329 3.30025
lowerneck -17.9073 -4.17748 -7.90298
upperneck 20.1367 -4.71551 5.38409
head 9.65552 -2.15038 2.54914
rclavicle 1.36167e-014 -1.23246e-014
rhumerus -34.4992 -13.498 -79.6962
rradius 32.2043
rwrist 5.65248
rhand -17.9621 11.1659
rfingers 7.12502
rthumb 8.30689 -18.6507
lclavicle 1.36167e-014 -1.23246e-014
lhumerus -34.3089 13.5613 83.4826
lradius 22.1583
lwrist -10.3434
lhand -16.0656 25.8857
lfingers 7.12502
lthumb 10.1369 55.6215
rfemur -39.48 -2.0628 4.08688
rtibia 35.2551
rfoot -9.84201 -6.26051
rtoes -6.27612
lfemur -2.6677 -1.9073 -38.6692
ltibia 25.3478
lfoot -20.8677 1.63624
ltoes 11.6747
196
root 3.1582 16.8266 6.2778 64.3404 82.9788 58.8636
lowerback 9.25759 0.7287 -6.1817
upperback 0.556791 0.329475 -0.569453
thorax -4.64961 0.300076 2.83977
lowerneck -18.0378 -4.33845 -7.90428
upperneck 20.3238 -4.95562 5.47716
head 9.7661 -2.24832 2.54837
rclavicle 5.91384e-015 1.59028e-015
rhumerus -34.6466 -14.1227 -79.542
rradius 32.4054
rwrist 5.94469
rhand -17.9819 11.108
rfingers 7.12502
rthumb 8.28784 -18.7094
lclavicle 5.91384e-015 1.59028e-015
lhumerus -33.9734 12.3254 84.0639
lradius 22.7668
lwrist -10.5458
lhand -15.134 25.251
lfingers 7.12502
lthumb 11.0355 54.9409
rfemur -39.4054 -3.20832 4.6263
rtibia 31.7431
rfoot -9.61689 -6.19371
rtoes -8.78472
lfemur -1.69436 -1.99243 -38.0477
ltibia 24.4219
lfoot -20.7854 1.13826
ltoes 11.7852
197
root 3.39654 16.8324 6.42851 66.1822 82.8544 60.9911
lowerback 8.93354 0.668874 -7.60767
upperback 0.700991 0.150661 -0.337377
thorax -4.30501 0.228461 3.90933
lowerneck -17.8534 -4.1437 -7.92206
upperneck 20.1956 -4.66665 5.38111
head 9.66314 -2.12982 2.55944
rclavicle 6.60959e-015 1.63003e-014
rhumerus -34.6982 -13.7016 -79.5135
rradius 32.5464
rwrist 6.03701
rhand -17.761 11.1914
rfingers 7.12502
rthumb 8.501 -18.6175
lclavicle 6.60959e-015 1.63003e-014
lhumerus -33.8753 11.6617 84.6424
lradius 23.4738
lwrist -10.2482
lhand -15.3294 25.2043
lfingers 7.12502
lthumb 10.847 54.9042
rfemur -38.6112 -2.38319 4.3508
rtibia 28.4519
rfoot -10.3415 -6.7288
rtoes -11.0393
lfemur 0.0706972 -0.647402 -37.5932
ltibia 23.4761
lfoot -21.2477 0.120213
ltoes 11.4684
198
root 3.6249 16.8342 6.58105 66.7315 82.8006 62.0909
lowerback 9.08122 0.710294 -9.10722
upperback 0.817131 0.0650077 0.036676
thorax -4.25803 0.212407 5.16098
lowerneck -17.5114 -3.978 -7.91719
upperneck 20.0155 -4.40129 5.14207
head 9.51166 -2.03774 2.51362
rclavicle -5.61567e-015 3.57812e-015
rhumerus -34.9243 -12.8809 -79.4333
rradius 32.8344
rwrist 5.63625
rhand -17.5048 11.3683
rfingers 7.12502
rthumb 8.74826 -18.4304
lclavicle -5.61567e-015 3.57812e-015
lhumerus -33.8065 10.7166 85.447
lradius 24.185
lwrist -9.48031
lhand -15.2838 25.1484
lfingers 7.12502
lthumb 10.891 54.846
rfemur -37.495 -1.12942 4.09967
rtibia 25.3454
rfoot -11.13 -7.45836
rtoes -12.3054
lfemur 2.10098 0.624048 -36.9141
ltibia 22.5146
lfoot -21.6861 -0.985072
ltoes 11.2407
199
root 3.81993 16.8341 6.64686 69.6291 83.4998 64.8829
lowerback 9.13508 0.54959 -8.70512
upperback 0.654237 -0.116097 0.288111
thorax -4.4324 0.128141 5.22438
lowerneck -17.5706 -4.02173 -7.96622
upperneck 20.2573 -4.39803 4.94009
head 9.6043 -2.06123 2.45303
rclavicle -9.93923e-016 1.35174e-014
rhumerus -35.159 -12.3287 -79.2573
rradius 33.1009
rwrist 4.8762
rhand -17.4677 11.3947
rfingers 7.12502
rthumb 8.784 -18.4025
lclavicle -9.93923e-016 1.35174e-014
lhumerus -33.5772 10.0068 86.0884
lradius 24.6561
lwrist -9.46055
lhand -14.9128 24.8527
lfingers 7.12502
lthumb 11.2489 54.5311
rfemur -37.0668 -0.758822 4.35725
rtibia 22.5508
rfoot -11.4583 -7.99845
rtoes -12.4274
lfemur 3.37278 0.102341 -36.0693
ltibia 21.5088
lfoot -21.5123 -1.20824
ltoes 9.71505
200
root 4.02087 16.8355 6.70935 75.3797 84.2257 70.5749
lowerback 9.16834 0.38513 -7.97193
upperback 0.498407 -0.272797 0.294474
thorax -4.59392 0.0460565 4.83731
lowerneck -17.5675 -4.11817 -7.7378
upperneck 20.5671 -4.5725 4.83208
head 9.7168 -2.13454 2.35599
rclavicle -8.10048e-015 -2.38542e-015
rhumerus -35.5875 -12.4597 -79.1389
rradius 33.3845
rwrist 4.28211
rhand -17.5907 11.2921
rfingers 7.12502
rthumb 8.66532 -18.51
lclavicle -8.10048e-015 -2.38542e-015
lhumerus -33.3912 8.19517 86.75
lradius 25.248
lwrist -8.60426
lhand -15.2684 24.9809
lfingers 7.12502
lthumb 10.9059 54.6777
rfemur -36.424 0.239563 4.12062
rtibia 20.081
rfoot -11.7967 -9.24972
rtoes -12.0098
lfemur 4.57483 -0.959658 -35.2797
ltibia 20.7674
lfoot -21.2025 -1.60574
ltoes 9.45802
